<?xml version="1.0" standalone="no"?><!DOCTYPE svg PUBLIC "-//W3C//DTD SVG 1.1//EN" "http://www.w3.org/Graphics/SVG/1.1/DTD/svg11.dtd"><svg width="100%" height="100%" viewBox="0 0 107 105" version="1.1" xmlns="http://www.w3.org/2000/svg" xmlns:xlink="http://www.w3.org/1999/xlink" xml:space="preserve" style="fill-rule:evenodd;clip-rule:evenodd;stroke-linejoin:round;stroke-miterlimit:1.41421;"><path d="M104.974,1.784c5.629,5.628 -9.976,30.359 -12.614,32.999c-2.638,2.634 -9.339,0.21 -14.965,-5.419c-5.629,-5.626 -8.054,-12.328 -5.416,-14.966c2.637,-2.639 27.367,-18.241 32.995,-12.614" style="fill:#f64636;fill-rule:nonzero;"/><path d="M26.039,7.738c-8.594,-4.876 -20.822,-10.3 -24.712,-6.41c-3.941,3.941 1.681,16.444 6.609,25.053c4.383,-7.623 10.622,-14.04 18.103,-18.643" style="fill:#f64636;fill-rule:nonzero;"/><path d="M96.389,32.841c0.791,2.684 0.648,4.902 -0.634,6.182c-2.998,3 -11.095,-0.192 -18.394,-7.14c-0.511,-0.456 -1.015,-0.931 -1.512,-1.429c-2.639,-2.639 -4.693,-5.451 -6.006,-8.039c-2.557,-4.585 -3.197,-8.637 -1.264,-10.568c1.053,-1.053 2.738,-1.34 4.793,-0.97c1.34,-0.847 2.922,-1.792 4.657,-2.758c-7.054,-3.679 -15.075,-5.758 -23.585,-5.758c-28.218,0 -51.096,22.874 -51.096,51.095c0,28.219 22.878,51.095 51.096,51.095c28.22,0 51.098,-22.876 51.098,-51.095c0,-9.113 -2.39,-17.66 -6.57,-25.068c-0.903,1.648 -1.781,3.159 -2.583,4.453" style="fill:#f64636;fill-rule:nonzero;"/></svg>